<svg xmlns="http://www.w3.org/2000/svg" width="18" height="20" viewBox="0 0 18 20">
  <path id="trash-alt-svgrepo-com" d="M18,6l-.8,12.013a4.873,4.873,0,0,1-.332,1.977A2,2,0,0,1,16,20.8a4.873,4.873,0,0,1-1.995.2H9.994A4.873,4.873,0,0,1,8,20.8a2,2,0,0,1-.866-.81A4.872,4.872,0,0,1,6.8,18.013L6,6M4,6H20M16,6l-.271-.812a4.586,4.586,0,0,0-.637-1.471,2,2,0,0,0-.8-.578A4.584,4.584,0,0,0,12.694,3H11.306a4.584,4.584,0,0,0-1.6.139,2,2,0,0,0-.8.578,4.584,4.584,0,0,0-.637,1.471L8,6m6,4v7m-4-7v7" transform="translate(-3 -2)" fill="none" stroke="#c00" stroke-linecap="round" stroke-linejoin="round" stroke-width="2"/>
</svg>
