<svg xmlns="http://www.w3.org/2000/svg" width="172" height="41.5" viewBox="0 0 172 41.5">
  <g id="Group_1" data-name="Group 1" transform="translate(-186 -19)">
    <text id="MOVIE" transform="translate(261 52)" fill="#fff" font-size="30" font-family="SegoeUI-Bold, Segoe UI" font-weight="700"><tspan x="0" y="0">MOVIE</tspan></text>
    <path id="Icon_awesome-film" data-name="Icon awesome-film" d="M52.74,4.5h-.865V6.661a1.3,1.3,0,0,1-1.3,1.3H46.255a1.3,1.3,0,0,1-1.3-1.3V4.5H10.375V6.661a1.3,1.3,0,0,1-1.3,1.3H4.755a1.3,1.3,0,0,1-1.3-1.3V4.5H2.594A2.588,2.588,0,0,0,0,7.094V43.406A2.588,2.588,0,0,0,2.594,46h.865V43.839a1.3,1.3,0,0,1,1.3-1.3H9.078a1.3,1.3,0,0,1,1.3,1.3V46H44.958V43.839a1.3,1.3,0,0,1,1.3-1.3h4.323a1.3,1.3,0,0,1,1.3,1.3V46h.865a2.588,2.588,0,0,0,2.594-2.594V7.094A2.588,2.588,0,0,0,52.74,4.5ZM10.375,37.786a1.3,1.3,0,0,1-1.3,1.3H4.755a1.3,1.3,0,0,1-1.3-1.3V33.464a1.3,1.3,0,0,1,1.3-1.3H9.078a1.3,1.3,0,0,1,1.3,1.3Zm0-10.375a1.3,1.3,0,0,1-1.3,1.3H4.755a1.3,1.3,0,0,1-1.3-1.3V23.089a1.3,1.3,0,0,1,1.3-1.3H9.078a1.3,1.3,0,0,1,1.3,1.3Zm0-10.375a1.3,1.3,0,0,1-1.3,1.3H4.755a1.3,1.3,0,0,1-1.3-1.3V12.714a1.3,1.3,0,0,1,1.3-1.3H9.078a1.3,1.3,0,0,1,1.3,1.3Zm29.4,22.479a1.3,1.3,0,0,1-1.3,1.3H16.859a1.3,1.3,0,0,1-1.3-1.3V29.141a1.3,1.3,0,0,1,1.3-1.3H38.474a1.3,1.3,0,0,1,1.3,1.3Zm0-18.156a1.3,1.3,0,0,1-1.3,1.3H16.859a1.3,1.3,0,0,1-1.3-1.3V10.984a1.3,1.3,0,0,1,1.3-1.3H38.474a1.3,1.3,0,0,1,1.3,1.3Zm12.1,16.427a1.3,1.3,0,0,1-1.3,1.3H46.255a1.3,1.3,0,0,1-1.3-1.3V33.464a1.3,1.3,0,0,1,1.3-1.3h4.323a1.3,1.3,0,0,1,1.3,1.3Zm0-10.375a1.3,1.3,0,0,1-1.3,1.3H46.255a1.3,1.3,0,0,1-1.3-1.3V23.089a1.3,1.3,0,0,1,1.3-1.3h4.323a1.3,1.3,0,0,1,1.3,1.3Zm0-10.375a1.3,1.3,0,0,1-1.3,1.3H46.255a1.3,1.3,0,0,1-1.3-1.3V12.714a1.3,1.3,0,0,1,1.3-1.3h4.323a1.3,1.3,0,0,1,1.3,1.3Z" transform="translate(186 14.5)" fill="#fff"/>
  </g>
</svg>
