<svg xmlns="http://www.w3.org/2000/svg" width="99.992" height="100" viewBox="0 0 99.992 100">
  <g id="Favorite" transform="translate(-0.999 -1)">
    <path id="Path_1" data-name="Path 1" d="M100.649,33a2.915,2.915,0,0,0-3-2H67.658L54,3a3.2,3.2,0,0,0-3-2h0a3.2,3.2,0,0,0-3,2L34.334,31H4.342a2.914,2.914,0,0,0-3,2,3.043,3.043,0,0,0,.666,3.667L24,62,14.339,96.667a3.018,3.018,0,0,0,1,3.333,3.575,3.575,0,0,0,3.666.333L51,85l31.991,15.333c.333.667.666.667,1.333.667h0a3.34,3.34,0,0,0,3.332-3.333A3.006,3.006,0,0,0,87.319,96l-9.33-34.333L99.983,36.333A2.585,2.585,0,0,0,100.649,33Z" fill="#fff"/>
  </g>
</svg>
